<svg id="Group_2" data-name="Group 2" xmlns="http://www.w3.org/2000/svg" viewBox="0 0 280.698 90.93">
  <defs>
    <style>
      .cls-1 {
        fill: #fff;
      }
    </style>
  </defs>
  <rect id="Rectangle_15" data-name="Rectangle 15" width="280.698" height="90.93" rx="8"/>
  <g id="Group_6" data-name="Group 6" transform="translate(41.709 16.056)">
    <g id="XMLID_15_" transform="translate(0 0)">
      <path id="XMLID_62_" class="cls-1" d="M45.994,273.625c-4.407,2.753-6.615,6.673-6.265,11.9s3.177,8.73,7.74,11.043a3.044,3.044,0,0,1-.084.4,33.465,33.465,0,0,1-4.852,9.274,25.511,25.511,0,0,1-2.774,3.323,10.182,10.182,0,0,1-2.2,1.659,6.867,6.867,0,0,1-4.763.607,24.926,24.926,0,0,1-3.711-1.246,11.935,11.935,0,0,0-4.333-.843,12.477,12.477,0,0,0-3.983.764c-.984.351-1.952.748-2.941,1.083a8.769,8.769,0,0,1-2.659.476,5.911,5.911,0,0,1-3.4-1.036,13.836,13.836,0,0,1-3.245-3,38.761,38.761,0,0,1-4.658-6.987,40.23,40.23,0,0,1-2.732-7.112,29.711,29.711,0,0,1-1.1-6c-.1-1.507-.063-3.025-.026-4.543a17.269,17.269,0,0,1,.837-4.663,16.66,16.66,0,0,1,3.208-5.877,14.249,14.249,0,0,1,5.982-4.161,13.633,13.633,0,0,1,3.669-.764,13.816,13.816,0,0,1,5.794,1.1c1.13.4,2.266.8,3.4,1.2a3.422,3.422,0,0,0,2.444-.058c1.471-.544,2.952-1.052,4.433-1.565a15.431,15.431,0,0,1,3.972-.858,14.18,14.18,0,0,1,4.093.387,13.582,13.582,0,0,1,5.7,2.721,13.273,13.273,0,0,1,2.3,2.486C45.894,273.421,45.926,273.5,45.994,273.625Z" transform="translate(0.026 -253.706)"/>
      <path id="XMLID_59_" class="cls-1" d="M1604.557,658.954v8.1h-2.638c-.026-.021-.042-.026-.052-.042a.077.077,0,0,1-.021-.047c-.121-7.008.11-14.021-.147-21.028a1.533,1.533,0,0,1,.047-.22h2.428c.047.848.094,1.654.147,2.554a2.992,2.992,0,0,0,.283-.309,6.24,6.24,0,0,1,10.561.722,9.533,9.533,0,0,1,1,5.27,9.431,9.431,0,0,1-.816,3.334,6.574,6.574,0,0,1-7.929,3.622A5.815,5.815,0,0,1,1604.557,658.954Zm8.865-5.841c-.01-.167-.016-.5-.052-.827a5.831,5.831,0,0,0-1.309-3.25,3.933,3.933,0,0,0-3.909-1.34,4.48,4.48,0,0,0-3.564,4.187,24.814,24.814,0,0,0,.016,3.24,4.014,4.014,0,0,0,2.643,3.585,4.229,4.229,0,0,0,5.406-1.994A7.8,7.8,0,0,0,1613.423,653.114Z" transform="translate(-1517.873 -611.606)"/>
      <path id="XMLID_56_" class="cls-1" d="M1946.268,659.143v8.081h-2.711c-.021-7.1-.037-14.167-.057-21.306.34-.005.738-.016,1.131-.016s.8,0,1.261,0c.047.843.089,1.648.136,2.554a3.022,3.022,0,0,0,.283-.3,6.242,6.242,0,0,1,10.588.754,9.7,9.7,0,0,1,.958,5.537,9.049,9.049,0,0,1-.79,3.02,6.568,6.568,0,0,1-7.924,3.632,4.937,4.937,0,0,1-2.591-1.769c-.057-.078-.125-.152-.188-.225C1946.337,659.112,1946.3,659.127,1946.268,659.143Zm.026-5.479c0,.523-.031,1.047.005,1.57a4.2,4.2,0,0,0,4.229,3.951,4.138,4.138,0,0,0,4.014-2.659,7.459,7.459,0,0,0,.6-3.266,6.605,6.605,0,0,0-.9-3.4,4.013,4.013,0,0,0-3.381-2.062,4.387,4.387,0,0,0-4.375,3.224A9.164,9.164,0,0,0,1946.295,653.664Z" transform="translate(-1841.784 -611.779)"/>
      <path id="XMLID_53_" class="cls-1" d="M1217.265,538.3h3.318c2.386,6.992,4.778,13.995,7.2,21.06a10.576,10.576,0,0,1-1.449.036c-.471.005-.937,0-1.466,0-.754-2.214-1.507-4.417-2.261-6.631h-7.479c-.722,2.182-1.455,4.391-2.193,6.61H1210.1C1212.487,552.331,1214.878,545.329,1217.265,538.3Zm4.742,12.294c-1.042-3.281-2.313-6.432-3.145-9.734a1.024,1.024,0,0,0-.157.335c-.23.822-.424,1.654-.69,2.465-.7,2.135-1.418,4.26-2.13,6.39-.058.173-.1.351-.157.544Z" transform="translate(-1146.768 -510.128)"/>
      <path id="XMLID_52_" class="cls-1" d="M2405.264,533.046c-.246.717-.487,1.434-.728,2.14-.622-.225-1.187-.46-1.769-.628a7.146,7.146,0,0,0-3.622-.162,3.078,3.078,0,0,0-2.559,2.392,2.829,2.829,0,0,0,.8,2.79,6.136,6.136,0,0,0,1.35.968c.691.366,1.424.66,2.146.958a13.118,13.118,0,0,1,3.036,1.622,5.244,5.244,0,0,1,2.062,3.114,5.773,5.773,0,0,1-3.434,6.762,9.111,9.111,0,0,1-3.2.7,11.854,11.854,0,0,1-4.919-.78c-.371-.141-.717-.335-1.12-.529.235-.79.46-1.528.7-2.3.209.1.361.188.513.262a9.1,9.1,0,0,0,5.569.989,4.947,4.947,0,0,0,.91-.236,3.265,3.265,0,0,0,2.3-2.732,3.376,3.376,0,0,0-1.371-3.355,11.891,11.891,0,0,0-2.79-1.418,17.966,17.966,0,0,1-2.046-.927,9.776,9.776,0,0,1-1.586-1.1,5.282,5.282,0,0,1,.22-8.039,7.175,7.175,0,0,1,4-1.518,10.8,10.8,0,0,1,4.684.586c.23.084.45.194.67.3A2.206,2.206,0,0,1,2405.264,533.046Z" transform="translate(-2268.044 -504.131)"/>
      <path id="XMLID_49_" class="cls-1" d="M2893.564,653.562a10.282,10.282,0,0,1-.5,2.994,7.024,7.024,0,0,1-5.992,4.935,7.393,7.393,0,0,1-3.412-.251,6.757,6.757,0,0,1-4.674-4.872,9.392,9.392,0,0,1,.157-5.715,7.1,7.1,0,0,1,6.505-4.851,7.969,7.969,0,0,1,3.533.555,6.8,6.8,0,0,1,4.082,5.035C2893.428,652.1,2893.47,652.834,2893.564,653.562Zm-2.889-.078a6.931,6.931,0,0,0-1.073-3.711,4.093,4.093,0,0,0-4.4-1.816,4.188,4.188,0,0,0-3,2.381,7.528,7.528,0,0,0-.685,4.38,6.007,6.007,0,0,0,1.4,3.323,4,4,0,0,0,3.072,1.45,4.184,4.184,0,0,0,3.742-2.193A7,7,0,0,0,2890.675,653.483Z" transform="translate(-2727.962 -611.992)"/>
      <path id="XMLID_46_" class="cls-1" d="M3408.969,660.367a8.772,8.772,0,0,1-2.339.712,12.087,12.087,0,0,1-4.527.063,6.441,6.441,0,0,1-5.286-4.778,9.467,9.467,0,0,1,.665-7.17,6.766,6.766,0,0,1,8.133-3.37,5.2,5.2,0,0,1,2.973,2.266,7.969,7.969,0,0,1,1.229,4.056c.027.57-.015,1.141-.031,1.764h-10.646a2.571,2.571,0,0,0-.036.392,9.844,9.844,0,0,0,.178,1.24,4.594,4.594,0,0,0,4.4,3.6,10.327,10.327,0,0,0,4.469-.623,1.883,1.883,0,0,1,.246-.079c.016-.005.032.01.1.042C3408.655,659.074,3408.806,659.7,3408.969,660.367Zm-9.85-8.447h8.039a5.532,5.532,0,0,0-.251-1.774,3.721,3.721,0,0,0-5.836-1.9A5.359,5.359,0,0,0,3399.119,651.92Z" transform="translate(-3218.649 -611.737)"/>
      <path id="XMLID_45_" class="cls-1" d="M462.2,0a15.746,15.746,0,0,1-.047,2.69A13.338,13.338,0,0,1,458.617,10a11.142,11.142,0,0,1-4.082,2.92,8.637,8.637,0,0,1-4.025.555,4.479,4.479,0,0,1-.1-1.79,10.772,10.772,0,0,1,1.256-4.49,13.071,13.071,0,0,1,5.94-5.888A12.677,12.677,0,0,1,461.4.052C461.642.021,461.883.021,462.2,0Z" transform="translate(-426.796)"/>
      <path id="XMLID_44_" class="cls-1" d="M2676.024,574.884H2673.7v-2.109h2.3v-3.648c.9-.241,1.769-.476,2.707-.728v4.349h3.925v2.067a4.983,4.983,0,0,1-1.277.052c-.419.016-.838.005-1.256.005h-1.351c-.01.2-.032.377-.032.544,0,2.5-.009,4.988.005,7.484a7.511,7.511,0,0,0,.173,1.607,1.7,1.7,0,0,0,1.842,1.444c.518,0,1.037-.068,1.617-.11a18.8,18.8,0,0,1,.152,1.994c-.167.063-.293.12-.424.157a7.152,7.152,0,0,1-2.643.2,3.439,3.439,0,0,1-3.256-3.083,11.285,11.285,0,0,1-.146-1.874c-.016-2.564-.005-5.129-.005-7.693C2676.024,575.345,2676.024,575.141,2676.024,574.884Z" transform="translate(-2533.769 -538.653)"/>
      <path id="XMLID_41_" class="cls-1" d="M1165.8,158.034V145.028c.377-.052.748-.11,1.125-.147a16.811,16.811,0,0,1,4.584.037,8.748,8.748,0,0,1,1.413.366,5.27,5.27,0,0,1,3.481,3.873,8.372,8.372,0,0,1-.147,4.6,5.891,5.891,0,0,1-4.637,4.14,15.149,15.149,0,0,1-4.265.256C1166.852,158.117,1166.355,158.075,1165.8,158.034Zm1.722-1.319a9.979,9.979,0,0,0,4.082-.283,4.431,4.431,0,0,0,2.905-2.936,7.15,7.15,0,0,0,.2-3.768,4.181,4.181,0,0,0-3.151-3.355,7.6,7.6,0,0,0-2.748-.246c-.424.037-.848.094-1.282.141C1167.522,149.775,1167.522,153.2,1167.522,156.715Z" transform="translate(-1104.786 -137.167)"/>
      <path id="XMLID_40_" class="cls-1" d="M3230.574,661.286h-2.717c-.021-5.04-.037-10.048-.057-15.094h2.329c.037.958.073,1.895.116,2.962a4.173,4.173,0,0,0,.235-.377,5.324,5.324,0,0,1,1.052-1.612,4.162,4.162,0,0,1,3.548-1.3,1.29,1.29,0,0,1,.225.057V648.5c-.262-.01-.5-.026-.744-.037a3.457,3.457,0,0,0-3.3,1.9,6.108,6.108,0,0,0-.7,3.077c-.005,2.407,0,4.81,0,7.217C3230.574,660.846,3230.574,661.035,3230.574,661.286Z" transform="translate(-3058.87 -612.038)"/>
      <path id="XMLID_39_" class="cls-1" d="M1590.333,226.562q1.037-3.76,2.088-7.557h1.738c-1.026,3.172-2.036,6.3-3.046,9.426h-1.585c-.764-2.434-1.638-4.857-2.329-7.379-.168.6-.324,1.214-.5,1.811-.193.633-.4,1.261-.612,1.889-.2.612-.413,1.219-.623,1.832s-.414,1.214-.623,1.837h-1.591c-.942-3.119-1.889-6.244-2.847-9.42h1.785c.649,2.528,1.3,5.056,1.968,7.651.4-1.308.785-2.57,1.178-3.826s.806-2.523,1.219-3.81h1.5C1588.81,221.538,1589.575,224.066,1590.333,226.562Z" transform="translate(-1497.687 -207.539)"/>
      <path id="XMLID_36_" class="cls-1" d="M2508.482,134.5h1.717v13.838h-1.455c-.036-.476-.079-.947-.125-1.518a3.238,3.238,0,0,0-.221.272,3.814,3.814,0,0,1-5.631.461,4.744,4.744,0,0,1-1.408-3.009,6.144,6.144,0,0,1,.545-3.512,4.035,4.035,0,0,1,4.458-2.256,3,3,0,0,1,1.832,1.026,1.44,1.44,0,0,1,.141.267c.047-.031.094-.058.146-.089Zm.016,9.18c-.021-.471-.016-.895-.068-1.308a2.566,2.566,0,0,0-4.825-.947,4.664,4.664,0,0,0-.1,4.281,2.511,2.511,0,0,0,2.821,1.418,2.574,2.574,0,0,0,2.088-2.2C2508.472,144.5,2508.472,144.062,2508.5,143.68Z" transform="translate(-2370.399 -127.461)"/>
      <path id="XMLID_35_" class="cls-1" d="M3403.237,148.248c-.2.016-.32.026-.44.026-.4.005-.8,0-1.156,0a.9.9,0,0,0-.079-.068c-.011-.01-.031-.026-.031-.042-.01-.173-.031-.345-.031-.518q0-6.539.01-13.079a.646.646,0,0,1,.058-.167h1.643v5.7c.032.016.058.031.089.047.105-.12.215-.236.32-.356a3.569,3.569,0,0,1,3.721-1.021,3.208,3.208,0,0,1,2.146,2.612,5.882,5.882,0,0,1,.115,1.089c.011,1.8.006,3.59.006,5.391,0,.1-.011.209-.021.377-.544.068-1.094.016-1.69.031-.011-.23-.027-.413-.027-.6,0-1.533.011-3.072,0-4.606a6.489,6.489,0,0,0-.131-1.35,2.056,2.056,0,0,0-2.941-1.5,2.368,2.368,0,0,0-1.549,2.282c-.021,1.711-.005,3.417-.011,5.129C3403.237,147.819,3403.237,148.007,3403.237,148.248Z" transform="translate(-3223.479 -127.366)"/>
      <path id="XMLID_32_" class="cls-1" d="M1394,219.64a13.686,13.686,0,0,1,.188-1.392,4.506,4.506,0,0,1,5.124-3.585,4.342,4.342,0,0,1,3.957,3.946,6.686,6.686,0,0,1-.089,2.282,4.555,4.555,0,0,1-5.077,3.6,4.441,4.441,0,0,1-4.061-4.422c-.005-.141,0-.277,0-.419A.07.07,0,0,0,1394,219.64Zm4.972-3.7a2.62,2.62,0,0,0-2.533,1.235,4.448,4.448,0,0,0-.052,4.674,2.567,2.567,0,0,0,4.538.021,4.41,4.41,0,0,0-.068-4.757A2.259,2.259,0,0,0,1398.972,215.94Z" transform="translate(-1321.043 -203.395)"/>
      <path id="XMLID_29_" class="cls-1" d="M2801.113,219.572a14.552,14.552,0,0,1-.215,1.444,4.542,4.542,0,0,1-5.087,3.465,4.364,4.364,0,0,1-3.967-3.951,6.692,6.692,0,0,1,.079-2.24,4.514,4.514,0,0,1,5.1-3.637,4.35,4.35,0,0,1,4.014,4.129c.026.262.026.523.042.785A.077.077,0,0,1,2801.113,219.572Zm-1.816.005a4.732,4.732,0,0,0-.57-2.3,2.634,2.634,0,0,0-4.568-.052,4.46,4.46,0,0,0-.074,4.538,2.6,2.6,0,0,0,4.658.021A4.285,4.285,0,0,0,2799.3,219.578Z" transform="translate(-2645.675 -203.39)"/>
      <path id="XMLID_26_" class="cls-1" d="M2141.438,219.741a12.6,12.6,0,0,1-.23,1.376,4.532,4.532,0,0,1-5.056,3.365,4.382,4.382,0,0,1-3.988-4.1,6.432,6.432,0,0,1,.131-2.235,4.514,4.514,0,0,1,5.066-3.486,4.344,4.344,0,0,1,4,3.972C2141.4,218.956,2141.407,219.286,2141.438,219.741Zm-1.795-.272a4.489,4.489,0,0,0-.529-2.093,2.647,2.647,0,0,0-4.694-.021,4.547,4.547,0,0,0-.053,4.312,2.55,2.55,0,0,0,2.371,1.528,2.623,2.623,0,0,0,2.392-1.5A4.561,4.561,0,0,0,2139.643,219.469Z" transform="translate(-2020.536 -203.397)"/>
      <path id="XMLID_25_" class="cls-1" d="M1868.195,224.264h-1.711c-.063-3.13.037-6.259-.084-9.415h1.508c.036.455.078.911.125,1.45.126-.147.2-.23.272-.319a3.545,3.545,0,0,1,3.8-1.24,3.108,3.108,0,0,1,2.334,2.612,5.109,5.109,0,0,1,.12,1.089c.011,1.832.005,3.658.005,5.49a3.072,3.072,0,0,1-.026.319,12.778,12.778,0,0,1-1.685.026c-.01-.225-.026-.408-.026-.6,0-1.533.01-3.067-.005-4.6a6.467,6.467,0,0,0-.125-1.35,2.084,2.084,0,0,0-3.13-1.418,2.479,2.479,0,0,0-1.355,2.041,5.235,5.235,0,0,0-.016.576v5.338Z" transform="translate(-1768.719 -203.376)"/>
      <path id="XMLID_22_" class="cls-1" d="M2329.441,215.576a6.12,6.12,0,0,1,3.638-.816,4.309,4.309,0,0,1,.571.084,3,3,0,0,1,2.444,2.664,8.21,8.21,0,0,1,.094,1.2c.01,1.308,0,2.617.015,3.925.005.57.063,1.146.094,1.748h-1.5c-.057-.345-.115-.7-.183-1.115-.156.147-.261.251-.372.351a3.571,3.571,0,0,1-3.5.869,2.832,2.832,0,0,1-1.146-4.726,4.487,4.487,0,0,1,2.355-1.167c.628-.126,1.277-.167,1.916-.235.168-.016.345-.005.5-.005a1.786,1.786,0,0,0-1.487-2.292,4.519,4.519,0,0,0-2.5.366c-.157.068-.314.147-.523.246C2329.714,216.32,2329.588,215.974,2329.441,215.576Zm5.03,3.978a6.264,6.264,0,0,0-3.046.555c-.047.026-.089.052-.136.084a1.853,1.853,0,0,0-.612,2.324,1.4,1.4,0,0,0,.947.759,2.3,2.3,0,0,0,2.821-1.758A11.667,11.667,0,0,0,2334.471,219.554Z" transform="translate(-2206.892 -203.502)"/>
      <path id="XMLID_19_" class="cls-1" d="M3596.422,219.9h-6.474a2.865,2.865,0,0,0,1.408,2.9,3.442,3.442,0,0,0,1.606.413,6.562,6.562,0,0,0,2.418-.361,3.185,3.185,0,0,1,.345-.089c.1.4.193.78.287,1.172a4.132,4.132,0,0,1-1.47.476,7.549,7.549,0,0,1-2.805.047,4.187,4.187,0,0,1-3.47-3.758,6.214,6.214,0,0,1,.4-3.386,4.245,4.245,0,0,1,4.961-2.533,3.277,3.277,0,0,1,2.225,1.607,5.281,5.281,0,0,1,.68,3.219.694.694,0,0,1-.032.152C3596.49,219.787,3596.469,219.813,3596.422,219.9Zm-1.576-1.277a2.809,2.809,0,0,0-.418-1.727,2.028,2.028,0,0,0-1.287-.905,2.647,2.647,0,0,0-3.214,2.633Z" transform="translate(-3400.402 -203.437)"/>
      <path id="XMLID_18_" class="cls-1" d="M3002.4,214.9h1.439c.042.461.079.9.116,1.345.041.026.078.052.121.078a1.9,1.9,0,0,1,.172-.283,3.563,3.563,0,0,1,3.748-1.256,2.853,2.853,0,0,1,2.146,1.889,4.936,4.936,0,0,1,.33,1.575c.042,1.915.021,3.836.021,5.752a2.716,2.716,0,0,1-.037.319h-1.675v-.6c0-1.5.011-3-.006-4.5a6.722,6.722,0,0,0-.146-1.45,2.083,2.083,0,0,0-3.1-1.413,2.4,2.4,0,0,0-1.334,1.769,4.514,4.514,0,0,0-.069.884c-.005,1.57-.005,3.135-.005,4.7v.6h-1.715C3002.4,221.179,3002.4,218.07,3002.4,214.9Z" transform="translate(-2845.266 -203.437)"/>
      <path id="XMLID_17_" class="cls-1" d="M3273.837,169.49c.021.2.042.319.042.44,0,.277,0,.55,0,.895h-2.444c-.016.2-.037.33-.037.466,0,1.518-.005,3.035,0,4.548a4.456,4.456,0,0,0,.1.984,1.066,1.066,0,0,0,1.146.932c.33.005.654-.037,1.026-.058.031.4.057.8.094,1.246a4.063,4.063,0,0,1-1.947.22,2.125,2.125,0,0,1-2-1.884,8.441,8.441,0,0,1-.11-1.4c-.015-1.465,0-2.931,0-4.391v-.623h-1.387a4.89,4.89,0,0,1-.083-1.329h1.418c.11-.775,0-1.5.074-2.292l1.648-.44v2.7C3272.231,169.49,3273.005,169.49,3273.837,169.49Z" transform="translate(-3097.188 -158.07)"/>
      <path id="XMLID_16_" class="cls-1" d="M2065.9,134.6h1.675v13.775a4.24,4.24,0,0,1-1.675.037Z" transform="translate(-1957.778 -127.556)"/>
    </g>
  </g>
</svg>
