<svg xmlns="http://www.w3.org/2000/svg" viewBox="0 0 74.112 98.811">
  <defs>
    <style>
      .cls-1 {
        fill: #fff;
      }
    </style>
  </defs>
  <g id="Group_126" data-name="Group 126" transform="translate(-0.063 0.024)">
    <path id="XMLID_18_" class="cls-1" d="M53.213,63.719c2.039.9,3.955,1.637,5.777,2.6a5.222,5.222,0,0,1,2.132,2.039c4.263,8.836,8.434,17.734,12.636,26.6a2.458,2.458,0,0,1-.185,3,2.5,2.5,0,0,1-3.213.463C65.447,96.22,60.5,94,55.561,91.864a3.153,3.153,0,0,0-2.255,0q-7.09,3.012-14.088,6.272a4.647,4.647,0,0,1-4.233-.031c-4.6-2.132-9.268-4.2-13.934-6.21a3.409,3.409,0,0,0-2.41-.031Q11.273,95.015,4,98.352a2.642,2.642,0,0,1-3.244-.371c-.989-.927-.772-2.008-.247-3.12,4.2-8.836,8.342-17.672,12.574-26.446a5.686,5.686,0,0,1,2.224-2.132c1.792-.989,3.707-1.73,5.685-2.626-.34-.587-.587-1.081-.865-1.545C17,56.891,13.915,51.7,10.794,46.48a30.536,30.536,0,0,1,2.317-34.942C19.877,3.32,28.806-.727,39.465.076A30.472,30.472,0,0,1,67.455,26.151a30.461,30.461,0,0,1-3.955,20.3C60.38,51.67,57.26,56.86,54.14,62.082,53.862,62.576,53.615,63.07,53.213,63.719ZM37.117,4.772c-1.328.154-2.657.216-3.985.433a25.847,25.847,0,0,0-18.1,38.927C18.889,50.62,22.782,57.108,26.643,63.6c2.657,4.449,5.314,8.929,8,13.377,1.514,2.472,3.4,2.441,4.943-.031.093-.185.216-.34.309-.525q9.732-16.266,19.464-32.563a24.546,24.546,0,0,0,3.46-15.2A25.81,25.81,0,0,0,37.117,4.772ZM50.741,67.983c-.34.494-.618.927-.865,1.359-2.132,3.522-4.233,7.044-6.4,10.566-3.151,5.129-9.577,5.129-12.729,0-2.163-3.553-4.325-7.137-6.488-10.69-.247-.433-.556-.834-.8-1.236-1.792.8-3.46,1.483-5.036,2.317a3.8,3.8,0,0,0-1.576,1.545c-2.966,6.086-5.839,12.2-8.743,18.321-.154.34-.247.711-.433,1.267,3.275-1.452,6.364-2.688,9.361-4.171a5.762,5.762,0,0,1,5.53-.031c4.387,2.1,8.867,4.047,13.347,5.963a3.329,3.329,0,0,0,2.441,0c4.263-1.792,8.527-3.584,12.636-5.654a6.833,6.833,0,0,1,6.951.031c2.719,1.452,5.654,2.533,8.527,3.831a2.359,2.359,0,0,0,0-.494c-3.089-6.488-6.148-12.976-9.268-19.433a2.047,2.047,0,0,0-.8-.9C54.572,69.651,52.688,68.848,50.741,67.983Z" transform="translate(0 0)"/>
    <path id="XMLID_15_" class="cls-1" d="M95.129,85.821a11.061,11.061,0,1,1,11.184-10.937A11.029,11.029,0,0,1,95.129,85.821ZM101.4,74.7a6.21,6.21,0,1,0-6.21,6.333A6.354,6.354,0,0,0,101.4,74.7Z" transform="translate(-58.074 -44.037)"/>
  </g>
</svg>
