<svg id="Group_1" data-name="Group 1" xmlns="http://www.w3.org/2000/svg" viewBox="0 0 161.569 161.569">
  <defs>
    <style>
      .cls-1 {
        fill: #fafb01;
      }

      .cls-2 {
        fill: #cf0405;
      }
    </style>
  </defs>
  <circle id="Ellipse_1" data-name="Ellipse 1" class="cls-1" cx="80.785" cy="80.785" r="80.785"/>
  <path id="Path_1" data-name="Path 1" class="cls-2" d="M29.852,23.648a2.341,2.341,0,1,1-2.341,2.341,2.348,2.348,0,0,1,2.341-2.341Zm8.195,2.341a2.341,2.341,0,1,0,2.341-2.341,2.348,2.348,0,0,0-2.341,2.341Zm-21.072,0a2.341,2.341,0,1,0,2.341-2.341,2.348,2.348,0,0,0-2.341,2.341Zm40.9,21.95a7.039,7.039,0,0,1,0,9.936,7.03,7.03,0,0,1-9.921,0L35.105,45.056a2.407,2.407,0,0,1-.585-.98l-2.795-9.219a2.339,2.339,0,0,1,2.868-2.927l9.453,2.619a2.145,2.145,0,0,1,1.024.6Zm-19.053-5.78L47.5,50.807,50.807,47.5l-8.619-8.6-4.756-1.317Zm15.746,9.1-.454-.454-3.307,3.307.454.454a2.339,2.339,0,0,0,3.307-3.307Zm-23.3-2.736c-.439.015-.863.029-1.3.029A28.454,28.454,0,0,1,19.2,46.476a2.327,2.327,0,0,0-1.8.015L6.731,51l3.585-8.5a2.357,2.357,0,0,0-.41-2.473A20.039,20.039,0,0,1,4.683,26.677c0-12.131,11.341-21.994,25.286-21.994s25.286,9.863,25.286,21.994a19.234,19.234,0,0,1-2.093,8.575,2.333,2.333,0,1,0,4.185,2.063,23.951,23.951,0,0,0,2.59-10.653C59.938,11.97,46.49,0,29.969,0S0,11.97,0,26.677A24.307,24.307,0,0,0,5.458,41.968L.19,54.465a2.338,2.338,0,0,0,2.151,3.249,2.2,2.2,0,0,0,.907-.19l15.087-6.366a33.063,33.063,0,0,0,11.619,2.078c.5,0,1.01-.015,1.507-.029A2.35,2.35,0,0,0,33.7,50.763a2.319,2.319,0,0,0-2.429-2.239Zm0,0" transform="translate(47.434 49.883)"/>
</svg>
