<svg id="Group_3" data-name="Group 3" xmlns="http://www.w3.org/2000/svg" viewBox="0 0 161.569 161.569">
  <defs>
    <style>
      .cls-1 {
        fill: #fafb01;
      }

      .cls-2 {
        fill: #cf0405;
      }
    </style>
  </defs>
  <circle id="Ellipse_1" data-name="Ellipse 1" class="cls-1" cx="80.785" cy="80.785" r="80.785"/>
  <path id="Path_4" data-name="Path 4" class="cls-2" d="M194.146,0a11.223,11.223,0,0,0-8.968,4.881A18.585,18.585,0,0,0,181.7,16a18.585,18.585,0,0,0,3.477,11.119,12.381,12.381,0,0,0,4.606,3.874L187.145,70.6a7.016,7.016,0,1,0,14,0l-2.639-39.609a12.674,12.674,0,0,0,4.606-3.874A18.585,18.585,0,0,0,206.591,16a18.585,18.585,0,0,0-3.477-11.119A11.2,11.2,0,0,0,194.146,0Zm3.432,70.845a3.414,3.414,0,0,1-.915,2.578,3.43,3.43,0,0,1-5,0,3.415,3.415,0,0,1-.915-2.578l2.593-38.877a7.712,7.712,0,0,0,1.678,0Zm-3.432-42.431a6.494,6.494,0,0,1-1.876-.275c-.046-.015-.107-.031-.153-.046-3.92-1.281-6.848-6.223-6.848-12.095,0-6.848,3.981-12.415,8.861-12.415,4.9,0,8.861,5.567,8.861,12.415C203.022,22.847,199.041,28.414,194.146,28.414Z" transform="translate(-101.383 41.394)"/>
  <path id="Path_5" data-name="Path 5" class="cls-2" d="M18.089,0A1.787,1.787,0,0,0,16.3,1.784V22.131H11.729V1.784a1.792,1.792,0,0,0-3.584,0V22.131H3.584V1.784A1.792,1.792,0,0,0,0,1.784V27.713a5.305,5.305,0,0,0,5.292,5.292h.32L3.1,70.784A6.84,6.84,0,0,0,9.929,78.09a6.84,6.84,0,0,0,6.833-7.306l-2.5-37.779h.32a5.305,5.305,0,0,0,5.292-5.292V1.784A1.8,1.8,0,0,0,18.089,0Zm-4.9,71.028a3.272,3.272,0,1,1-6.528,0L9.2,33.021h1.479Zm1.388-41.592H5.292a1.705,1.705,0,0,1-1.708-1.708v-2h12.7v2A1.715,1.715,0,0,1,14.581,29.436Z" transform="translate(52.604 41.394)"/>
</svg>
