<svg id="Group_2" data-name="Group 2" xmlns="http://www.w3.org/2000/svg" viewBox="0 0 161.569 161.569">
  <defs>
    <style>
      .cls-1 {
        fill: #fafb01;
      }

      .cls-2 {
        fill: #cf0405;
      }
    </style>
  </defs>
  <circle id="Ellipse_1" data-name="Ellipse 1" class="cls-1" cx="80.785" cy="80.785" r="80.785"/>
  <g id="Group_4" data-name="Group 4" transform="translate(51.762 50.099)">
    <path id="Path_2" data-name="Path 2" class="cls-2" d="M52.245,0H7.464A7.465,7.465,0,0,0,0,7.464V52.245a7.465,7.465,0,0,0,7.464,7.464H52.245a7.465,7.465,0,0,0,7.464-7.464V7.464A7.465,7.465,0,0,0,52.245,0ZM7.464,4.976H52.245a2.5,2.5,0,0,1,2.488,2.488V25.1L46.538,16.9a2.5,2.5,0,0,0-3.514,0L25.5,34.425,19.172,28.1a2.5,2.5,0,0,0-3.514,0L4.976,38.779V7.464A2.5,2.5,0,0,1,7.464,4.976ZM52.245,54.732H7.464a2.5,2.5,0,0,1-2.488-2.488V45.807L17.415,33.368,31.829,47.782a2.485,2.485,0,0,0,3.514-3.514L29.014,37.94,44.781,22.173l9.951,9.951v20.12a2.5,2.5,0,0,1-2.488,2.488Zm0,0"/>
    <path id="Path_3" data-name="Path 3" class="cls-2" d="M73.951,68.976A4.976,4.976,0,1,1,68.976,64a4.97,4.97,0,0,1,4.976,4.976Zm0,0" transform="translate(-54.049 -54.049)"/>
  </g>
</svg>
